Coordinates
version=1
nRows=12
nColumns=24
inDegrees=yes

Units are S.I. units (second, meters, Newtons, ...)
Angles are in degrees.

endheader
time	pelvis_tilt	pelvis_list	pelvis_rotation	pelvis_tx	pelvis_ty	pelvis_tz	hip_flexion_r	hip_adduction_r	hip_rotation_r	knee_angle_r	ankle_angle_r	subtalar_angle_r	mtp_angle_r	hip_flexion_l	hip_adduction_l	hip_rotation_l	knee_angle_l	ankle_angle_l	subtalar_angle_l	mtp_angle_l	lumbar_extension	lumbar_bending	lumbar_rotation
      5.40500000	     -0.30878896	      3.96548302	      1.43180289	      0.85339874	      1.00005165	     -0.34768415	     23.27449773	     -1.52462247	      4.37165193	     -8.36436763	     11.51273483	     -6.18528598	      0.00000000	    -17.85613630	      6.18093344	      5.38309453	     -8.25416727	     17.84923923	     -5.70749002	      0.00000000	    -13.09323932	     -2.82559213	    -10.26648245
      5.41000000	     -0.26613040	      3.79306139	      1.39763546	      0.86065316	      0.99968641	     -0.34688812	     23.38403330	     -1.24365652	      4.15392187	     -9.37856023	     11.22183595	     -5.71561788	      0.00000000	    -17.78619159	      5.94123721	      4.90893341	     -9.28127620	     17.97268257	     -4.92923714	      0.00000000	    -13.09951359	     -2.62418570	    -10.11943544
      5.41500000	     -0.23596933	      3.58200502	      1.35288554	      0.86791298	      0.99941348	     -0.34607525	     23.50951083	     -0.92679191	      3.92178096	    -10.39603574	     10.80095535	     -5.29596109	      0.00000000	    -17.68398029	      5.66239721	      4.42502711	    -10.33406001	     18.02037952	     -4.17818171	      0.00000000	    -13.09078909	     -2.37655716	     -9.95684259
      5.42000000	     -0.21411548	      3.34297231	      1.31054720	      0.87514277	      0.99924545	     -0.34525948	     23.64678576	     -0.58974943	      3.69076555	    -11.40987841	     10.30046552	     -4.95209712	      0.00000000	    -17.54074711	      5.35151140	      3.91421734	    -11.43279167	     18.00493407	     -3.44761746	      0.00000000	    -13.08120295	     -2.10229533	     -9.78201701
      5.42500000	     -0.20273676	      3.07030336	      1.26393948	      0.88238799	      0.99917789	     -0.34447604	     23.78924536	     -0.22609129	      3.48223510	    -12.40444603	      9.77735068	     -4.69015880	      0.00000000	    -17.36104118	      5.00756720	      3.38908371	    -12.57105503	     17.90775706	     -2.75279227	      0.00000000	    -13.05774415	     -1.77721098	     -9.60315319
      5.43000000	     -0.19732293	      2.78491107	      1.22279147	      0.88959968	      0.99920854	     -0.34369594	     23.93746520	      0.14488563	      3.31752491	    -13.39246320	      9.27509858	     -4.52873139	      0.00000000	    -17.13700624	      4.64379821	      2.82752918	    -13.76499884	     17.74286567	     -2.06954842	      0.00000000	    -13.03694218	     -1.44177702	     -9.42240081
      5.43500000	     -0.20115508	      2.51510932	      1.18183237	      0.89676637	      0.99932248	     -0.34289868	     24.09321547	      0.50189372	      3.22695653	    -14.37223177	      8.81552557	     -4.49448256	      0.00000000	    -16.86039232	      4.28714169	      2.22475129	    -15.02193383	     17.49064083	     -1.38980674	      0.00000000	    -13.01658637	     -1.13026924	     -9.25131764
      5.44000000	     -0.19561029	      2.19776541	      1.16152980	      0.90406666	      0.99954460	     -0.34223742	     24.21592350	      0.88118165	      3.07150294	    -15.33323219	      8.50038643	     -4.42355050	      0.00000000	    -16.58214918	      3.88154286	      1.66132333	    -16.29577953	     17.09963278	     -0.85441448	      0.00000000	    -12.98121734	     -0.74327912	     -9.06937363
      5.44500000	     -0.18286903	      1.93476432	      1.14584938	      0.91128484	      0.99981323	     -0.34156254	     24.33401527	      1.20754429	      2.96371359	    -16.30291400	      8.30408966	     -4.44968136	      0.00000000	    -16.24707265	      3.51405095	      1.02368251	    -17.66842777	     16.64519609	     -0.27649553	      0.00000000	    -12.97229200	     -0.42165057	     -8.92201674
      5.45000000	     -0.16794460	      1.69082421	      1.13390037	      0.91853695	      1.00012539	     -0.34090513	     24.43839337	      1.51053139	      2.85519154	    -17.26744948	      8.23702032	     -4.50800714	      0.00000000	    -15.88133773	      3.15731673	      0.38621869	    -19.08397207	     16.05926711	      0.20820720	      0.00000000	    -12.96097619	     -0.12054533	     -8.78850963
      5.45500000	     -0.15135909	      1.47672721	      1.12167217	      0.92581641	      1.00046155	     -0.34030598	     24.52238238	      1.77578853	      2.72566979	    -18.20881151	      8.30848038	     -4.56898959	      0.00000000	    -15.46967422	      2.82097301	     -0.27657508	    -20.56998767	     15.35520264	      0.65796525	      0.00000000	    -12.94681317	      0.15655967	     -8.66668243
      5.46000000	     -0.14454271	      1.28755222	      1.10733325	      0.93307339	      1.00079695	     -0.33970677	     24.60567667	      2.01321923	      2.59332237	    -19.13748199	      8.48757941	     -4.61653189	      0.00000000	    -14.99546114	      2.49718745	     -0.95684119	    -22.12481010	     14.52275660	      1.02935193	      0.00000000	    -12.92688191	      0.41016844	     -8.57185882
